<svg width="214" height="49" viewBox="0 0 214 49" fill="none" xmlns="http://www.w3.org/2000/svg">
<g clip-path="url(#clip0_61_82)">
<path d="M63.7895 14.5271H44.8044V19.3633H51.6427V38.5879H56.9514V19.3633H63.7895V14.5271Z" fill="#FEFEFE"/>
<path d="M72.6669 33.7402V28.7894H81.2043V24.0793H72.6669V19.3347H82.1184V14.5214H67.358V38.5879H82.505V33.7402H72.6669Z" fill="#FEFEFE"/>
<path d="M96.3161 14.5271H87.011V38.5823H96.3161C103.547 38.5823 108.809 33.4939 108.809 26.526C108.809 19.5868 103.576 14.5271 96.3161 14.5271ZM96.1813 33.746H92.3198V19.3633H96.1813C100.418 19.3633 103.359 22.2972 103.359 26.526C103.359 30.7262 100.418 33.746 96.1813 33.746Z" fill="#FEFEFE"/>
<path d="M127.87 25.8957C129.598 24.7096 130.641 22.7784 130.641 20.7099C130.641 17.1686 127.489 14.5213 123.241 14.5213H113.069V38.5879H123.528C127.805 38.5879 131.274 35.5051 131.274 31.6431C131.274 29.0989 130.044 27.0073 127.87 25.8958V25.8957ZM125.479 21.5236C125.479 23.025 124.413 24.0908 122.737 24.0908H118.301V18.9566H122.737C124.407 18.9566 125.479 20.0109 125.479 21.5237V21.5236ZM123.024 33.809H118.301V28.4111H123.024C124.776 28.4111 125.93 29.5515 125.93 31.0986C125.93 32.6802 124.776 33.809 123.024 33.809Z" fill="#FEFEFE"/>
<path d="M147.318 39.1094C154.8 39.1094 160.391 33.7289 160.391 26.5548C160.391 19.3806 154.8 14 147.318 14C139.806 14 134.187 19.4093 134.187 26.5548C134.187 33.7003 139.806 39.1094 147.318 39.1094ZM147.318 34.2044C142.935 34.2044 139.577 30.8866 139.577 26.5548C139.577 22.2227 142.935 18.9049 147.318 18.9049C151.707 18.9049 155 22.1884 155 26.5548C155 30.9211 151.707 34.2044 147.318 34.2044Z" fill="#FEFEFE"/>
<path d="M176.253 39.1094C183.735 39.1094 189.325 33.7289 189.325 26.5548C189.325 19.3806 183.735 14 176.253 14C168.741 14 163.121 19.4093 163.121 26.5548C163.121 33.7003 168.741 39.1094 176.253 39.1094ZM176.253 34.2044C171.87 34.2044 168.512 30.8866 168.512 26.5548C168.512 22.2227 171.87 18.9049 176.253 18.9049C180.641 18.9049 183.935 22.1884 183.935 26.5548C183.935 30.9211 180.641 34.2044 176.253 34.2044Z" fill="#FEFEFE"/>
<path d="M214 38.5879L204.712 26.0505L213.086 14.5214H206.875L198.812 25.6378V14.5214H193.503V38.5879H198.812V26.8412L207.502 38.5879H214Z" fill="#FEFEFE"/>
<path fill-rule="evenodd" clip-rule="evenodd" d="M0.0132566 40.4079V8.67986C0.0132566 7.20759 0.133747 5.55089 2.40656 4.31613C4.67937 3.08136 8.75894 0.983293 9.71471 0.587032C10.6705 0.190771 13.5338 -0.596794 17.8488 0.774858C22.1638 2.14651 28.4093 4.10098 29.2766 4.4148C30.1439 4.72862 33.2831 6.76116 33.2513 11.2429C33.2193 15.7247 33.2089 37.4463 33.2089 37.4463C33.2089 37.4463 33.6333 40.9559 32.3021 41.899C31.8739 42.2025 29.7553 43.5541 29.7554 42.5782L29.7586 12.1544C29.7586 12.1544 29.5539 8.38782 26.8318 7.52501C24.1096 6.6622 15.1846 3.80719 15.1846 3.80719C11.4155 2.13037 9.34926 5.23416 11.479 5.93355C17.3336 7.46609 22.4381 8.90317 22.4381 8.90317C22.4381 8.90317 26.8682 9.57757 26.8383 13.4412C26.8085 17.305 26.8158 43.2782 26.8158 43.2782C26.8158 43.2782 24.9417 48.8894 21.1749 48.9981C17.4081 49.1067 2.99777 44.5395 2.99777 44.5395C2.99777 44.5395 -0.228022 43.7987 0.0132566 40.4078V40.4079Z" fill="#BF0000"/>
<path d="M19.6874 21.3616L7.73982 17.9494C7.41573 17.8568 7.09631 17.9135 6.8262 18.1115C6.55609 18.3096 6.41095 18.5936 6.41095 18.9237V21.9265C6.41095 22.3845 6.7084 22.7724 7.15795 22.9008L10.7416 23.9242V34.4168C10.7416 34.8748 11.0391 35.2627 11.4886 35.3911L14.7747 36.3296C15.0988 36.4221 15.4182 36.3654 15.6883 36.1674C15.9584 35.9694 16.1036 35.6854 16.1036 35.3552V25.4556L19.1056 26.313C19.4297 26.4055 19.7491 26.3487 20.0192 26.1508C20.2892 25.9528 20.4344 25.6688 20.4344 25.3386V22.3359C20.4344 21.8779 20.137 21.49 19.6874 21.3615V21.3616Z" fill="#FEFEFE"/>
</g>
<defs>
<clipPath id="clip0_61_82">
<rect width="214" height="49" fill="white"/>
</clipPath>
</defs>
</svg>
