<svg width="48" height="48" viewBox="0 0 48 48" fill="none" xmlns="http://www.w3.org/2000/svg">
<path d="M29.7804 36.4399H12.2004C11.1604 36.4399 10.1804 36.34 9.30035 36.14C8.84035 36.08 8.28038 35.92 7.70038 35.7C5.04038 34.7 1.90039 32.24 1.90039 26.12V15.8199C1.90039 9.27995 5.66038 5.52002 12.2004 5.52002H29.7804C35.3004 5.52002 38.8604 8.15996 39.8204 12.96C40.0004 13.84 40.0804 14.7799 40.0804 15.8199V26.12C40.0804 32.7 36.3404 36.4399 29.7804 36.4399ZM12.2203 8.56006C7.30034 8.56006 4.92035 10.94 4.92035 15.86V26.16C4.92035 29.74 6.18038 31.94 8.76038 32.92C9.16038 33.06 9.54039 33.16 9.90039 33.22C10.6604 33.38 11.4003 33.46 12.2203 33.46H29.8004C34.7204 33.46 37.1003 31.08 37.1003 26.16V15.86C37.1003 15.02 37.0404 14.28 36.9004 13.6C36.2204 10.2 33.9004 8.56006 29.8004 8.56006H12.2203Z" fill="#FFA303"/>
<path d="M35.7802 42.4399H18.2002C16.5002 42.4399 14.9802 42.1999 13.6802 41.6999C10.7402 40.5999 8.82014 38.2799 8.16014 34.9599C8.06014 34.4599 8.22019 33.9399 8.58019 33.5999C8.94019 33.2399 9.46019 33.0999 9.96019 33.2199C10.6202 33.3599 11.3602 33.4399 12.2002 33.4399H29.7802C34.7002 33.4399 37.0802 31.06 37.0802 26.14V15.8399C37.0802 14.9999 37.0202 14.2599 36.8802 13.5799C36.7802 13.0799 36.9402 12.5799 37.2802 12.2199C37.6402 11.8599 38.1402 11.6999 38.6402 11.8199C43.4402 12.7999 46.0802 16.3599 46.0802 21.8399V32.14C46.0802 38.7 42.3402 42.4399 35.7802 42.4399ZM11.8402 36.4399C12.4802 37.5999 13.4402 38.42 14.7602 38.9C15.7202 39.26 16.8801 39.4399 18.2201 39.4399H35.8002C40.7202 39.4399 43.1001 37.06 43.1001 32.14V21.8399C43.1001 18.6799 42.1201 16.5799 40.1001 15.4799C40.1001 15.5999 40.1001 15.7199 40.1001 15.8399V26.14C40.1001 32.68 36.3402 36.4399 29.8002 36.4399H12.2201C12.0801 36.4399 11.9602 36.4399 11.8402 36.4399Z" fill="#FFA303"/>
<path d="M20.9998 27.78C17.2598 27.78 14.2197 24.74 14.2197 21C14.2197 17.26 17.2598 14.22 20.9998 14.22C24.7398 14.22 27.7798 17.26 27.7798 21C27.7798 24.74 24.7398 27.78 20.9998 27.78ZM20.9998 17.22C18.9198 17.22 17.2197 18.92 17.2197 21C17.2197 23.08 18.9198 24.78 20.9998 24.78C23.0798 24.78 24.7798 23.08 24.7798 21C24.7798 18.92 23.0798 17.22 20.9998 17.22Z" fill="#FFA303"/>
<path d="M9.56055 26.9001C8.74055 26.9001 8.06055 26.2201 8.06055 25.4001V16.6001C8.06055 15.7801 8.74055 15.1001 9.56055 15.1001C10.3805 15.1001 11.0605 15.7801 11.0605 16.6001V25.4001C11.0605 26.2201 10.4005 26.9001 9.56055 26.9001Z" fill="#FFA303"/>
<path d="M32.4199 26.9001C31.5999 26.9001 30.9199 26.2201 30.9199 25.4001V16.6001C30.9199 15.7801 31.5999 15.1001 32.4199 15.1001C33.2399 15.1001 33.9199 15.7801 33.9199 16.6001V25.4001C33.9199 26.2201 33.2599 26.9001 32.4199 26.9001Z" fill="#FFA303"/>
</svg>
