<svg width="48" height="48" viewBox="0 0 48 48" fill="none" xmlns="http://www.w3.org/2000/svg">
<path d="M30 45.5H18C7.14 45.5 2.5 40.86 2.5 30V18C2.5 7.14 7.14 2.5 18 2.5H30C40.86 2.5 45.5 7.14 45.5 18V30C45.5 40.86 40.86 45.5 30 45.5ZM18 5.5C8.78 5.5 5.5 8.78 5.5 18V30C5.5 39.22 8.78 42.5 18 42.5H30C39.22 42.5 42.5 39.22 42.5 30V18C42.5 8.78 39.22 5.5 30 5.5H18Z" fill="#292D32"/>
<path d="M36 30.5C35.18 30.5 34.5 29.82 34.5 29C34.5 27.62 33.38 26.5 32 26.5H16C14.62 26.5 13.5 27.62 13.5 29C13.5 29.82 12.82 30.5 12 30.5C11.18 30.5 10.5 29.82 10.5 29V15.5C10.5 12.46 12.96 10 16 10H32C35.04 10 37.5 12.46 37.5 15.5V29C37.5 29.82 36.82 30.5 36 30.5ZM16 23.5H32C32.9 23.5 33.76 23.72 34.5 24.1V15.5C34.5 14.12 33.38 13 32 13H16C14.62 13 13.5 14.12 13.5 15.5V24.1C14.24 23.72 15.1 23.5 16 23.5Z" fill="#292D32"/>
<path d="M38 33H36C35.18 33 34.5 32.32 34.5 31.5C34.5 30.68 35.18 30 36 30H38C38.82 30 39.5 30.68 39.5 31.5C39.5 32.32 38.82 33 38 33Z" fill="#292D32"/>
<path d="M12 33H10C9.18 33 8.5 32.32 8.5 31.5C8.5 30.68 9.18 30 10 30H12C12.82 30 13.5 30.68 13.5 31.5C13.5 32.32 12.82 33 12 33Z" fill="#292D32"/>
<path d="M36 29.5C35.18 29.5 34.5 28.82 34.5 28V22C34.5 20.62 33.38 19.5 32 19.5H16C14.62 19.5 13.5 20.62 13.5 22V28C13.5 28.82 12.82 29.5 12 29.5C11.18 29.5 10.5 28.82 10.5 28V22C10.5 18.96 12.96 16.5 16 16.5H32C35.04 16.5 37.5 18.96 37.5 22V28C37.5 28.82 36.82 29.5 36 29.5Z" fill="#292D32"/>
<path d="M24 38C20.94 38 18.3601 35.86 17.6801 33H12C11.18 33 10.5 32.32 10.5 31.5V29C10.5 25.96 12.96 23.5 16 23.5H32C35.04 23.5 37.5 25.96 37.5 29V31.5C37.5 32.32 36.82 33 36 33H30.3199C29.6399 35.86 27.06 38 24 38ZM13.5 30H19C19.82 30 20.5 30.68 20.5 31.5C20.5 33.42 22.08 35 24 35C25.92 35 27.5 33.42 27.5 31.5C27.5 30.68 28.18 30 29 30H34.5V29C34.5 27.62 33.38 26.5 32 26.5H16C14.62 26.5 13.5 27.62 13.5 29V30Z" fill="#292D32"/>
</svg>
