<svg width="31" height="31" viewBox="0 0 31 31" fill="none" xmlns="http://www.w3.org/2000/svg">
<path d="M15.5 0.916672C7.44996 0.916672 0.916626 7.45001 0.916626 15.5C0.916626 23.55 7.44996 30.0833 15.5 30.0833C23.55 30.0833 30.0833 23.55 30.0833 15.5C30.0833 7.45001 23.55 0.916672 15.5 0.916672ZM15.5 5.29167C17.9208 5.29167 19.875 7.24584 19.875 9.66667C19.875 12.0875 17.9208 14.0417 15.5 14.0417C13.0791 14.0417 11.125 12.0875 11.125 9.66667C11.125 7.24584 13.0791 5.29167 15.5 5.29167ZM15.5 26C11.8541 26 8.63121 24.1333 6.74996 21.3042C6.79371 18.4021 12.5833 16.8125 15.5 16.8125C18.402 16.8125 24.2062 18.4021 24.25 21.3042C22.3687 24.1333 19.1458 26 15.5 26Z" fill="#667080"/>
</svg>
