<svg width="30" height="30" viewBox="0 0 30 30" fill="none" xmlns="http://www.w3.org/2000/svg">
<circle cx="15" cy="15" r="15" fill="#5FDE33"/>
<path d="M18.7847 22.4653C17.9999 22.4653 17.1736 22.2778 16.3194 21.9166C15.4861 21.5625 14.6458 21.0764 13.8263 20.4861C13.0138 19.8889 12.2291 19.2222 11.4861 18.493C10.7499 17.75 10.0833 16.9653 9.493 16.1597C8.89578 15.3264 8.41661 14.493 8.07633 13.6875C7.71522 12.8264 7.53467 11.993 7.53467 11.2083C7.53467 10.6666 7.63189 10.1528 7.81939 9.67359C8.01383 9.18053 8.32633 8.7222 8.74995 8.32637C9.28467 7.79859 9.89578 7.5347 10.5486 7.5347C10.8194 7.5347 11.0972 7.5972 11.3333 7.70831C11.6041 7.83331 11.8333 8.02081 11.9999 8.27081L13.6111 10.5416C13.7569 10.743 13.868 10.9375 13.9444 11.1319C14.0347 11.3403 14.0833 11.5486 14.0833 11.75C14.0833 12.0139 14.0069 12.2708 13.8611 12.5139C13.7569 12.7014 13.5972 12.9028 13.3958 13.1041L12.9236 13.5972C12.9305 13.618 12.9374 13.6319 12.9444 13.6458C13.0277 13.7916 13.1944 14.0416 13.5138 14.4166C13.8541 14.8055 14.1736 15.1597 14.493 15.4861C14.9027 15.8889 15.243 16.2083 15.5624 16.4722C15.9583 16.8055 16.2152 16.9722 16.368 17.0486L16.3541 17.0833L16.8611 16.5833C17.0763 16.368 17.2847 16.2083 17.4861 16.1041C17.868 15.868 18.3541 15.8264 18.8402 16.0278C19.0208 16.1041 19.2152 16.2083 19.4236 16.3541L21.7291 17.993C21.9861 18.1666 22.1736 18.3889 22.2847 18.6528C22.3888 18.9166 22.4374 19.1597 22.4374 19.4028C22.4374 19.7361 22.3611 20.0694 22.2152 20.3819C22.0694 20.6944 21.8888 20.9653 21.6597 21.2153C21.2638 21.6528 20.8333 21.9653 20.3333 22.1666C19.8541 22.3611 19.3333 22.4653 18.7847 22.4653ZM10.5486 8.57637C10.1666 8.57637 9.81245 8.74303 9.47217 9.07637C9.15272 9.37498 8.9305 9.70137 8.79161 10.0555C8.64578 10.4166 8.57633 10.7986 8.57633 11.2083C8.57633 11.8541 8.72911 12.5555 9.03467 13.2778C9.34717 14.0139 9.78467 14.7778 10.3402 15.5416C10.8958 16.3055 11.5277 17.0486 12.2222 17.75C12.9166 18.4375 13.6666 19.0764 14.4374 19.6389C15.1874 20.1875 15.9583 20.6319 16.7222 20.9514C17.9097 21.4583 19.0208 21.5764 19.9374 21.1944C20.2916 21.0486 20.6041 20.8264 20.8888 20.5069C21.0486 20.3333 21.1736 20.1458 21.2777 19.9236C21.3611 19.75 21.4027 19.5694 21.4027 19.3889C21.4027 19.2778 21.3819 19.1666 21.3263 19.0416C21.3055 19 21.2638 18.9236 21.1319 18.8333L18.8263 17.1944C18.6874 17.0972 18.5624 17.0278 18.4444 16.9791C18.2916 16.9166 18.2291 16.8541 17.993 17C17.8541 17.0694 17.7291 17.1736 17.5902 17.3125L17.0624 17.8333C16.7916 18.0972 16.3749 18.1597 16.0555 18.0416L15.868 17.9583C15.5833 17.8055 15.2499 17.5694 14.8819 17.2569C14.5486 16.9722 14.1874 16.6389 13.7499 16.2083C13.4097 15.8611 13.0694 15.493 12.7152 15.0833C12.3888 14.7014 12.1527 14.375 12.0069 14.1041L11.9236 13.8958C11.8819 13.7361 11.868 13.6458 11.868 13.5486C11.868 13.2986 11.9583 13.0764 12.1319 12.9028L12.6527 12.3611C12.7916 12.2222 12.8958 12.0903 12.9652 11.9722C13.0208 11.8819 13.0416 11.8055 13.0416 11.7361C13.0416 11.6805 13.0208 11.5972 12.9861 11.5139C12.9374 11.4028 12.8611 11.2778 12.7638 11.1458L11.1527 8.86803C11.0833 8.77081 10.9999 8.70136 10.8958 8.65275C10.7847 8.60414 10.6666 8.57637 10.5486 8.57637ZM16.3541 17.0903L16.243 17.5625L16.4305 17.0764C16.3958 17.0694 16.368 17.0764 16.3541 17.0903Z" fill="white"/>
<path d="M19.5139 13.4375C19.2292 13.4375 18.9931 13.2014 18.9931 12.9167C18.9931 12.6667 18.7431 12.1458 18.3264 11.7014C17.9167 11.2639 17.4653 11.0069 17.0833 11.0069C16.7986 11.0069 16.5625 10.7708 16.5625 10.4861C16.5625 10.2014 16.7986 9.96527 17.0833 9.96527C17.7569 9.96527 18.4653 10.3264 19.0833 10.9861C19.6597 11.6042 20.0347 12.3611 20.0347 12.9167C20.0347 13.2014 19.7986 13.4375 19.5139 13.4375Z" fill="white"/>
<path d="M21.9444 13.4375C21.6597 13.4375 21.4236 13.2014 21.4236 12.9166C21.4236 10.5208 19.4792 8.57637 17.0833 8.57637C16.7986 8.57637 16.5625 8.34025 16.5625 8.05553C16.5625 7.77081 16.7986 7.5347 17.0833 7.5347C20.0486 7.5347 22.4653 9.95136 22.4653 12.9166C22.4653 13.2014 22.2292 13.4375 21.9444 13.4375Z" fill="white"/>
</svg>
