<svg width="44" height="44" viewBox="0 0 44 44" fill="none" xmlns="http://www.w3.org/2000/svg">
<circle cx="22" cy="22" r="22" fill="#FFA303"/>
<path d="M14.5882 18.1194L15.3143 18.307L14.5882 18.1194ZM18.088 14.8253L18.2293 15.5619L18.088 14.8253ZM20.1526 23.5436L19.941 22.8241L20.1526 23.5436ZM21.2594 24.6503L20.5398 24.4387L21.2594 24.6503ZM26.6836 30.2148L26.8712 30.941L26.6836 30.2148ZM29.9777 26.715L30.7142 26.8563L29.9777 26.715ZM31.7323 17.5659L30.9957 17.4247L31.7323 17.5659ZM27.237 13.0707L27.0958 12.3341L27.237 13.0707ZM16.0052 27.7371C15.7123 28.03 15.7123 28.5049 16.0052 28.7978C16.2981 29.0907 16.773 29.0907 17.0659 28.7978L16.0052 27.7371ZM18.4801 27.3836C18.773 27.0907 18.773 26.6158 18.4801 26.3229C18.1872 26.03 17.7123 26.03 17.4194 26.3229L18.4801 27.3836ZM16.7123 31.2727C16.4194 31.5656 16.4194 32.0404 16.7123 32.3333C17.0052 32.6262 17.4801 32.6262 17.773 32.3333L16.7123 31.2727ZM19.1872 30.9191C19.4801 30.6262 19.4801 30.1514 19.1872 29.8585C18.8943 29.5656 18.4194 29.5656 18.1265 29.8585L19.1872 30.9191ZM12.4697 27.03C12.1768 27.3229 12.1768 27.7978 12.4697 28.0907C12.7626 28.3836 13.2374 28.3836 13.5303 28.0907L12.4697 27.03ZM14.9445 26.6765C15.2374 26.3836 15.2374 25.9087 14.9445 25.6158C14.6517 25.3229 14.1768 25.3229 13.8839 25.6158L14.9445 26.6765ZM30.9957 17.4247L29.2411 26.5737L30.7142 26.8563L32.4689 17.7072L30.9957 17.4247ZM18.2293 15.5619L27.3783 13.8073L27.0958 12.3341L17.9467 14.0888L18.2293 15.5619ZM15.3143 18.307C15.6759 16.9075 16.8144 15.8333 18.2293 15.5619L17.9467 14.0888C15.9579 14.4702 14.3673 15.9756 13.862 17.9318L15.3143 18.307ZM19.941 22.8241C17.1886 23.6335 14.5918 21.1041 15.3143 18.307L13.862 17.9318C12.8531 21.8374 16.4752 25.4068 20.3642 24.2631L19.941 22.8241ZM21.9789 24.8619C22.3454 23.6155 21.1874 22.4575 19.941 22.8241L20.3642 24.2631C20.4716 24.2315 20.5714 24.3313 20.5398 24.4387L21.9789 24.8619ZM26.496 29.4887C23.6989 30.2112 21.1695 27.6144 21.9789 24.8619L20.5398 24.4387C19.3962 28.3278 22.9656 31.9499 26.8712 30.941L26.496 29.4887ZM29.2411 26.5737C28.9697 27.9886 27.8955 29.1272 26.496 29.4887L26.8712 30.941C28.8274 30.4357 30.3328 28.8451 30.7142 26.8563L29.2411 26.5737ZM32.4689 17.7072C33.08 14.5206 30.2824 11.723 27.0958 12.3341L27.3783 13.8073C29.5237 13.3958 31.4072 15.2793 30.9957 17.4247L32.4689 17.7072ZM17.0659 28.7978L18.4801 27.3836L17.4194 26.3229L16.0052 27.7371L17.0659 28.7978ZM17.773 32.3333L19.1872 30.9191L18.1265 29.8585L16.7123 31.2727L17.773 32.3333ZM13.5303 28.0907L14.9445 26.6765L13.8839 25.6158L12.4697 27.03L13.5303 28.0907Z" fill="#F2F4F5"/>
</svg>
